<?xml version="1.0" standalone="no"?>
<!DOCTYPE svg PUBLIC "-//W3C//DTD SVG 20010904//EN"
 "http://www.w3.org/TR/2001/REC-SVG-20010904/DTD/svg10.dtd">
<svg version="1.0" xmlns="http://www.w3.org/2000/svg"
 width="96.000000pt" height="96.000000pt" viewBox="0 0 96.000000 96.000000"
 preserveAspectRatio="xMidYMid meet">
<metadata>
Created by potrace 1.14, written by Peter Selinger 2001-2017
</metadata>
<g transform="translate(0.000000,96.000000) scale(0.100000,-0.100000)"
fill="#000000" stroke="none">
<path d="M405 926 c-70 -32 -115 -100 -115 -176 l0 -40 -74 0 c-41 0 -77 -3
-79 -7 -3 -5 -8 -42 -12 -83 -3 -41 -8 -86 -10 -100 -2 -14 -7 -50 -10 -80 -3
-30 -10 -93 -16 -140 -6 -47 -13 -107 -15 -135 -3 -27 -9 -76 -13 -107 l-8
-58 422 0 c232 0 424 2 427 5 3 3 2 27 -2 53 -5 26 -11 81 -15 122 -4 41 -8
77 -10 80 -2 3 -6 40 -10 83 -3 43 -8 86 -10 95 -1 9 -6 46 -10 82 -3 36 -9
92 -13 125 l-7 60 -77 3 -78 3 0 41 c0 58 -33 120 -81 154 -48 33 -135 43
-184 20z m163 -53 c37 -27 60 -70 64 -118 l3 -40 -156 -3 -156 -2 4 42 c7 68
39 114 93 137 37 16 117 7 148 -16z m-278 -221 c0 -10 -5 -23 -11 -29 -19 -19
-6 -58 20 -61 38 -6 53 21 36 63 -8 18 -11 35 -8 39 4 3 73 6 154 6 161 0 165
-2 143 -57 -11 -26 -11 -33 1 -43 23 -19 60 -8 63 19 2 13 -1 28 -7 34 -6 6
-11 19 -11 29 0 15 9 18 60 18 41 0 60 -4 61 -12 0 -7 2 -22 3 -33 2 -11 6
-51 10 -90 4 -38 9 -83 11 -100 3 -16 9 -75 15 -130 6 -55 13 -111 15 -125 2
-14 7 -51 10 -82 l6 -58 -96 0 -96 0 1 117 c1 65 1 134 1 153 l-1 36 -190 0
-190 0 -1 -41 c0 -22 0 -91 0 -152 l0 -113 -96 0 -95 0 7 57 c3 32 8 69 10 83
2 14 6 50 9 80 3 30 9 78 12 105 4 28 7 59 9 70 15 145 19 181 21 188 1 4 2
16 3 27 1 18 8 20 61 20 51 0 60 -3 60 -18z m170 -478 l0 -134 -65 0 c-51 0
-65 3 -66 15 0 8 -1 62 -1 120 0 58 1 111 1 119 1 10 18 13 66 14 l65 0 0
-134z m171 117 c3 -53 4 -228 1 -238 -3 -9 -26 -13 -68 -13 l-64 0 0 134 0
134 65 0 c53 0 65 -3 66 -17z"/>
<path d="M386 181 c-7 -11 18 -33 27 -24 4 3 7 12 7 20 0 15 -26 18 -34 4z"/>
<path d="M540 176 c0 -8 4 -17 9 -20 11 -7 33 18 24 27 -12 12 -33 7 -33 -7z"/>
</g>
</svg>
